<svg width="32" height="32" viewBox="0 0 32 32" fill="none" xmlns="http://www.w3.org/2000/svg">

    <defs>
        <radialGradient id="paint0_radial_4_2" cx="0" cy="0" r="1" gradientUnits="userSpaceOnUse" gradientTransform="translate(16.1047 15.8035) scale(15.6696)">
            <stop stop-color="white" stop-opacity="0.1"/>
            <stop offset="1" stop-color="white" stop-opacity="0"/>
        </radialGradient>
        <clipPath id="clip0_4_2">
            <rect width="32" height="32" fill="white"/>
        </clipPath>
    </defs>

<g clip-path="url(#clip0_4_2)">
<path d="M6.82359 25.0797L1.46417 19.7203C0.828772 19.0665 0.4328 18.1456 0.4328 17.2455C0.4328 16.8288 0.66762 16.1773 0.844887 15.802L5.79223 5.49527L6.82359 25.0797Z" fill="#01579B"/>
<path d="M25.1718 6.52663L19.8124 1.1672C19.345 0.69756 18.3689 0.135834 17.5447 0.135834C16.8357 0.135834 16.1404 0.278568 15.6892 0.54792L5.79453 5.49526L25.1718 6.52663Z" fill="#40C4FF"/>
<path d="M13.2144 31.4705H26.2032V25.9039L16.5134 22.8121L7.65007 25.9039L13.2144 31.4705Z" fill="#40C4FF"/>
<path d="M5.79453 22.1951C5.79453 23.8481 6.00172 24.2555 6.82589 25.082L7.65006 25.9062H26.2032L17.1327 15.5994L5.79453 5.49756V22.1951Z" fill="#29B6F6"/>
<path d="M22.2849 5.49527H5.79222L26.2009 25.9039H31.7675V13.1223L25.1718 6.52664C24.2463 5.59656 23.4221 5.49527 22.2849 5.49527Z" fill="#01579B"/>
<path opacity="0.2" d="M7.03078 25.2869C6.20661 24.4581 5.99942 23.6432 5.99942 22.1951V5.70246L5.79222 5.49527V22.1928C5.79452 23.6432 5.79452 24.0438 7.03078 25.2869Z" fill="white"/>
<path opacity="0.2" d="M31.5626 12.9174V25.699H25.996L26.2032 25.9039H31.7698V13.1246L31.5626 12.9174Z" fill="#263238"/>
<path opacity="0.2" d="M25.1718 6.52664C24.1496 5.50448 23.3116 5.49527 22.08 5.49527H5.79453L6.00172 5.70246H22.0823C22.6947 5.70246 24.2486 5.59887 25.1718 6.52664Z" fill="white"/>
<path opacity="0.2" d="M31.5626 12.9174L25.1718 6.52663L19.8124 1.1672C19.345 0.69756 18.3689 0.135834 17.5447 0.135834C16.8357 0.135834 16.1404 0.278568 15.6892 0.54792L5.79453 5.49526L0.847191 15.802C0.669925 16.1773 0.435104 16.8288 0.435104 17.2455C0.435104 18.1456 0.831076 19.0665 1.46647 19.7203L6.4069 24.6239C6.52431 24.7689 6.66244 24.9163 6.8282 25.0797L7.03539 25.2869L7.65467 25.9062L13.0141 31.2656L13.2213 31.4728H26.0029H26.2101V25.9062H31.7767V25.8924V13.1246L31.5626 12.9174Z" fill="url(#paint0_radial_4_2)"/>
</g>
</svg>
