<svg width="32" height="32" viewBox="0 0 32 32" fill="none" xmlns="http://www.w3.org/2000/svg">
<path fill-rule="evenodd" clip-rule="evenodd" d="M16 0.40625C7.16 0.40625 0 7.56625 0 16.4062C0 23.4862 4.58 29.4663 10.94 31.5863C11.74 31.7263 12.04 31.2463 12.04 30.8263C12.04 30.4463 12.02 29.1863 12.02 27.8463C8 28.5863 6.96 26.8662 6.64 25.9662C6.46 25.5062 5.68 24.0862 5 23.7062C4.44 23.4062 3.64 22.6662 4.98 22.6462C6.24 22.6262 7.14 23.8062 7.44 24.2862C8.88 26.7062 11.18 26.0263 12.1 25.6063C12.24 24.5663 12.66 23.8662 13.12 23.4662C9.56 23.0662 5.84 21.6862 5.84 15.5662C5.84 13.8262 6.46 12.3862 7.48 11.2662C7.32 10.8662 6.76 9.22625 7.64 7.02625C7.64 7.02625 8.98 6.60625 12.04 8.66625C13.32 8.30625 14.68 8.12625 16.04 8.12625C17.4 8.12625 18.76 8.30625 20.04 8.66625C23.1 6.58625 24.44 7.02625 24.44 7.02625C25.32 9.22625 24.76 10.8662 24.6 11.2662C25.62 12.3862 26.24 13.8062 26.24 15.5662C26.24 21.7062 22.5 23.0662 18.94 23.4662C19.52 23.9662 20.02 24.9263 20.02 26.4263C20.02 28.5663 20 30.2863 20 30.8263C20 31.2463 20.3 31.7463 21.1 31.5863C27.42 29.4663 32 23.4662 32 16.4062C32 7.56625 24.84 0.40625 16 0.40625Z" fill="white"/>
</svg>
