<svg width="480" height="80" viewBox="0 0 480 80" fill="none" xmlns="http://www.w3.org/2000/svg">
<g clip-path="url(#clip0_5_13)">
<path d="M0 80V0H63.9844V16.0156H15.9961V64.0039H47.9883V48.0078H31.9922V32.0117H63.9844V80H0ZM80 80V0H143.984V16.0156H95.9961V80H80ZM207.988 64.0039V48.0078H175.996V64.0039H207.988ZM160 80V32.0117H207.988V16.0156H223.984V80H160ZM160 16.0156V0H207.988V16.0156H160ZM287.988 32.0117V16.0156H255.996V32.0117H287.988ZM240 80V0H303.984V48.0078H255.996V80H240ZM320 80V0H335.996V32.0117H383.984V80H367.988V48.0078H335.996V80H320ZM400 80V64.0039H415.996V80H400ZM463.984 80V64.0039H480V80H463.984ZM415.996 64.0039V48.0078H431.992V64.0039H415.996ZM447.988 64.0039V48.0078H463.984V64.0039H447.988ZM431.992 48.0078V32.0117H447.988V48.0078H431.992ZM415.996 32.0117V16.0156H431.992V32.0117H415.996ZM447.988 32.0117V16.0156H463.984V32.0117H447.988ZM400 16.0156V0H415.996V16.0156H400ZM463.984 16.0156V0H480V16.0156H463.984Z" fill="#6C67FF"/>
</g>
<defs>
<clipPath id="clip0_5_13">
<rect width="480" height="80" fill="white"/>
</clipPath>
</defs>
</svg>
