<svg width="50" height="30" viewBox="0 0 50 30" fill="none" xmlns="http://www.w3.org/2000/svg">
<path d="M5 25V5H20.9961V9.0039H8.99903V21.001H16.9971V17.002H12.9981V13.0029H20.9961V25H5ZM25 25V21.001H28.999V25H25ZM40.996 25V21.001H45V25H40.996ZM28.999 21.001V17.002H32.998V21.001H28.999ZM36.997 21.001V17.002H40.996V21.001H36.997ZM32.998 17.002V13.0029H36.997V17.002H32.998ZM28.999 13.0029V9.0039H32.998V13.0029H28.999ZM36.997 13.0029V9.0039H40.996V13.0029H36.997ZM25 9.0039V5H28.999V9.0039H25ZM40.996 9.0039V5H45V9.0039H40.996Z" fill="#6C67FF"/>
</svg>
